# xmcd
#
# Track frame offsets: 
#        212
#        9725
#        20007
#        45042
#        53915
#        66727
#        75270
#        84957
#        93972
#        106005
#        118225
#        128757
#        138680
#        147257
#
# Disc length: 2110 seconds
#
# Revision: 0
# Processed by: cddbd v1.5.1PL0 Copyright (c) Steve Scherf et al.
# Submitted via: ExactAudioCopy v0.95b2
#
DISCID=b4083c0e
DTITLE=Various Artist - Smackin' That Wax - The Kangaroo Records Story - 1959
DTITLE=1964
DYEAR=1900
DGENRE=Blues
TTITLE0=Albert Collins - The Freeze
TTITLE1=Albert Collins - Collins Shuffle
TTITLE2=Henry Hayes - Hog Grunt
TTITLE3=Henry Hayes - The Twirl
TTITLE4=Joe Hughes - I Can't Go On This Way
TTITLE5=Joe Hughes - Make Me Dance
TTITLE6=Henry Hayes and Georgetta Hardin - Stop Smacking That Wax
TTITLE7=Henry Hayes and Georgetta Hardin - It Takes Money
TTITLE8=Herbert Milburn and The LeSabres - The Snake
TTITLE9=Herbert Milburn and The LeSabres - They Say
TTITLE10=Piano Slim - Lazy Dazy
TTITLE11=Piano Slim - Whole Lotta Shaking
TTITLE12=The Tigers - Do The Tiger
TTITLE13=Henry Hayes - Spring Fever
EXTD=
EXTT0=
EXTT1=
EXTT2=
EXTT3=
EXTT4=
EXTT5=
EXTT6=
EXTT7=
EXTT8=
EXTT9=
EXTT10=
EXTT11=
EXTT12=
EXTT13=
PLAYORDER=
